<?xml version="1.0" encoding="UTF-8" standalone="no"?>
<!-- Generator: Adobe Illustrator 19.0.0, SVG Export Plug-In . SVG Version: 6.00 Build 0)  -->

<svg
   xmlns:dc="http://purl.org/dc/elements/1.1/"
   xmlns:cc="http://creativecommons.org/ns#"
   xmlns:rdf="http://www.w3.org/1999/02/22-rdf-syntax-ns#"
   xmlns:svg="http://www.w3.org/2000/svg"
   xmlns="http://www.w3.org/2000/svg"
   xmlns:sodipodi="http://sodipodi.sourceforge.net/DTD/sodipodi-0.dtd"
   xmlns:inkscape="http://www.inkscape.org/namespaces/inkscape"
   version="1.1"
   id="Capa_1"
   x="0px"
   y="0px"
   viewBox="0 0 60 24"
   xml:space="preserve"
   sodipodi:docname="icon2.svg"
   width="60"
   height="24"
   inkscape:version="0.92.2 5c3e80d, 2017-08-06"><metadata
     id="metadata39"><rdf:RDF><cc:Work
         rdf:about=""><dc:format>image/svg+xml</dc:format><dc:type
           rdf:resource="http://purl.org/dc/dcmitype/StillImage" /><dc:title></dc:title></cc:Work></rdf:RDF></metadata><defs
     id="defs37" /><sodipodi:namedview
     pagecolor="#ffffff"
     bordercolor="#666666"
     borderopacity="1"
     objecttolerance="10"
     gridtolerance="10"
     guidetolerance="10"
     inkscape:pageopacity="0"
     inkscape:pageshadow="2"
     inkscape:window-width="833"
     inkscape:window-height="591"
     id="namedview35"
     showgrid="false"
     fit-margin-top="0"
     fit-margin-left="0"
     fit-margin-right="0"
     fit-margin-bottom="0"
     inkscape:zoom="3.9333333"
     inkscape:cx="30"
     inkscape:cy="12"
     inkscape:window-x="0"
     inkscape:window-y="0"
     inkscape:window-maximized="0"
     inkscape:current-layer="Capa_1" /><path
     d="M 59,10 H 56.82 C 55.869,4.334 50.97,0 45.072,0 39.25,0 34.376,4.119 33.247,9.579 32.276,8.765 31.168,8.333 30,8.333 28.833,8.333 27.726,8.765 26.755,9.578 25.639,4.118 20.825,0 15.072,0 8.756,0 3.565,4.851 3.051,11 H 1 c -0.553,0 -1,0.448 -1,1 0,0.552 0.447,1 1,1 h 2.051 c 0.514,6.149 5.705,11 12.021,11 6.467,0 11.736,-5.207 11.911,-11.671 0.853,-1.285 1.915,-1.996 3.017,-1.996 1.102,0 2.164,0.712 3.017,1.996 C 33.195,18.793 38.528,24 45.072,24 51.649,24 57,18.617 57,12 h 2 c 0.553,0 1,-0.448 1,-1 0,-0.552 -0.447,-1 -1,-1 z M 15.072,22 C 9.519,22 5,17.514 5,12 5,6.486 9.519,2 15.072,2 20.64,2 25,6.393 25,12 c 0,5.607 -4.36,10 -9.928,10 z m 30,0 C 39.519,22 35,17.514 35,12 35,6.486 39.519,2 45.072,2 50.64,2 55,6.393 55,12 c 0,5.607 -4.36,10 -9.928,10 z"
     id="path2"
     inkscape:connector-curvature="0" /><g
     id="g4"
     transform="translate(0,-18)" /><g
     id="g6"
     transform="translate(0,-18)" /><g
     id="g8"
     transform="translate(0,-18)" /><g
     id="g10"
     transform="translate(0,-18)" /><g
     id="g12"
     transform="translate(0,-18)" /><g
     id="g14"
     transform="translate(0,-18)" /><g
     id="g16"
     transform="translate(0,-18)" /><g
     id="g18"
     transform="translate(0,-18)" /><g
     id="g20"
     transform="translate(0,-18)" /><g
     id="g22"
     transform="translate(0,-18)" /><g
     id="g24"
     transform="translate(0,-18)" /><g
     id="g26"
     transform="translate(0,-18)" /><g
     id="g28"
     transform="translate(0,-18)" /><g
     id="g30"
     transform="translate(0,-18)" /><g
     id="g32"
     transform="translate(0,-18)" /></svg>