<?xml version="1.0" encoding="UTF-8" standalone="no"?>
<!-- Generator: Adobe Illustrator 19.1.0, SVG Export Plug-In . SVG Version: 6.00 Build 0)  -->

<svg
   xmlns:dc="http://purl.org/dc/elements/1.1/"
   xmlns:cc="http://creativecommons.org/ns#"
   xmlns:rdf="http://www.w3.org/1999/02/22-rdf-syntax-ns#"
   xmlns:svg="http://www.w3.org/2000/svg"
   xmlns="http://www.w3.org/2000/svg"
   xmlns:sodipodi="http://sodipodi.sourceforge.net/DTD/sodipodi-0.dtd"
   xmlns:inkscape="http://www.inkscape.org/namespaces/inkscape"
   version="1.1"
   id="Capa_1"
   x="0px"
   y="0px"
   viewBox="0 0 468.7 468.7"
   style="enable-background:new 0 0 468.7 468.7;"
   xml:space="preserve"
   sodipodi:docname="invoice.svg"
   inkscape:version="0.92.2 5c3e80d, 2017-08-06"><metadata
     id="metadata67"><rdf:RDF><cc:Work
         rdf:about=""><dc:format>image/svg+xml</dc:format><dc:type
           rdf:resource="http://purl.org/dc/dcmitype/StillImage" /></cc:Work></rdf:RDF></metadata><defs
     id="defs65" /><sodipodi:namedview
     pagecolor="#ffffff"
     bordercolor="#666666"
     borderopacity="1"
     objecttolerance="10"
     gridtolerance="10"
     guidetolerance="10"
     inkscape:pageopacity="0"
     inkscape:pageshadow="2"
     inkscape:window-width="640"
     inkscape:window-height="480"
     id="namedview63"
     showgrid="false"
     inkscape:zoom="0.50352036"
     inkscape:cx="234.35001"
     inkscape:cy="234.35001"
     inkscape:window-x="0"
     inkscape:window-y="0"
     inkscape:window-maximized="0"
     inkscape:current-layer="Capa_1" /><g
     id="g30"><g
       id="g28"><path
         d="M449.35,0h-430c-6.6,0-12,5.4-12,12s5.4,12,12,12h25.9v432.4c0,4.4,2.4,8.5,6.3,10.6s8.6,1.9,12.3-0.6l52.1-34.7    l52.3,34.8c4,2.7,9.3,2.7,13.3,0l52.1-34.7l52.3,34.8c4,2.7,9.3,2.7,13.3,0l52.1-34.7l52.3,34.8c2,1.3,4.3,2,6.6,2    c1.9,0,3.9-0.5,5.7-1.4c3.9-2.1,6.3-6.2,6.3-10.6l-0.2-432.4h27.3c6.6,0,12-5.4,12-12S455.95,0,449.35,0z M398.35,434l-40.3-26.8    c-4-2.7-9.3-2.7-13.3,0l-52.1,34.8l-52.3-34.8c-4-2.7-9.3-2.7-13.3,0l-52.1,34.7l-52.3-34.7c-4-2.7-9.3-2.7-13.3,0l-40.1,26.7    v-410h329L398.35,434z"
         id="path2" /></g></g><g
     id="g32" /><g
     id="g34" /><g
     id="g36" /><g
     id="g38" /><g
     id="g40" /><g
     id="g42" /><g
     id="g44" /><g
     id="g46" /><g
     id="g48" /><g
     id="g50" /><g
     id="g52" /><g
     id="g54" /><g
     id="g56" /><g
     id="g58" /><g
     id="g60" /></svg>