<?xml version="1.0" encoding="iso-8859-1"?>
<!-- Generator: Adobe Illustrator 19.0.0, SVG Export Plug-In . SVG Version: 6.00 Build 0)  -->
<svg version="1.1" id="Capa_1" xmlns="http://www.w3.org/2000/svg" xmlns:xlink="http://www.w3.org/1999/xlink" x="0px" y="0px"
	 viewBox="0 0 480 480" style="enable-background:new 0 0 480 480;" xml:space="preserve">
<g>
	<g>
		<path d="M472,104.251h-32.648c4.691-30.57-16.287-59.155-46.858-63.846s-59.155,16.287-63.846,46.858
			c-0.864,5.63-0.864,11.359,0,16.989H64v-40c0-4.418-3.582-8-8-8H32c-17.673,0-32,14.327-32,32v320c0,17.673,14.327,32,32,32h440
			c4.418,0,8-3.582,8-8v-320C480,107.833,476.418,104.251,472,104.251z M354.155,69.593c7.59-8.5,18.45-13.354,29.845-13.341
			c22.065-0.03,39.976,17.834,40.005,39.898c0.015,11.399-4.839,22.261-13.341,29.854c-1.693,1.516-2.662,3.68-2.664,5.952v12.296
			h-16v-20.688l21.656-21.656l-11.312-11.312L384,108.939l-18.344-18.344l-11.312,11.312L376,123.563v20.688h-16v-12.296
			c0-2.271-0.966-4.435-2.656-5.952C340.886,111.307,339.458,86.051,354.155,69.593z M16,88.251c0-8.837,7.163-16,16-16h16v304H32
			c-5.619-0.009-11.141,1.474-16,4.296V88.251z M464,424.251H32c-8.837,0-16-7.163-16-16s7.163-16,16-16h24c4.418,0,8-3.582,8-8
			v-264h269.52c2.636,5.581,6.177,10.687,10.48,15.112v8.888h-16v16h112v-16h-16v-8.888c4.303-4.427,7.846-9.532,10.488-15.112H464
			V424.251z"/>
	</g>
</g>
<g>
	<g>
		<path d="M296,144.251H96c-4.418,0-8,3.582-8,8v168c0,4.418,3.582,8,8,8h200c4.418,0,8-3.582,8-8v-168
			C304,147.833,300.418,144.251,296,144.251z M288,312.251H104v-36.32l47.584-40.8l58.76,58.76l11.312-11.312l-10.344-10.328
			L240,243.563l48,48V312.251z M288,268.939l-42.344-42.344c-3.124-3.123-8.188-3.123-11.312,0L200,260.939l-42.344-42.344
			c-2.956-2.956-7.69-3.137-10.864-0.416L104,254.859v-94.608h184V268.939z"/>
	</g>
</g>
<g>
	<g>
		<rect x="360" y="184.251" width="16" height="16"/>
	</g>
</g>
<g>
	<g>
		<rect x="392" y="184.251" width="48" height="16"/>
	</g>
</g>
<g>
	<g>
		<rect x="328" y="216.251" width="112" height="16"/>
	</g>
</g>
<g>
	<g>
		<rect x="328" y="248.251" width="112" height="16"/>
	</g>
</g>
<g>
	<g>
		<rect x="328" y="280.251" width="112" height="16"/>
	</g>
</g>
<g>
	<g>
		<rect x="328" y="312.251" width="80" height="16"/>
	</g>
</g>
<g>
	<g>
		<rect x="128" y="352.251" width="176" height="16"/>
	</g>
</g>
<g>
	<g>
		<rect x="88" y="384.251" width="216" height="16"/>
	</g>
</g>
<g>
	<g>
		<path d="M200,176.251c-13.255,0-24,10.745-24,24s10.745,24,24,24s24-10.745,24-24S213.255,176.251,200,176.251z M200,208.251
			c-4.418,0-8-3.582-8-8s3.582-8,8-8s8,3.582,8,8S204.418,208.251,200,208.251z"/>
	</g>
</g>
<g>
	<g>
		<rect x="128" y="176.251" width="16" height="16"/>
	</g>
</g>
<g>
	<g>
		<rect x="248" y="192.251" width="16" height="16"/>
	</g>
</g>
<g>
	<g>
		<rect x="88" y="352.251" width="16" height="16"/>
	</g>
</g>
<g>
	<g>
		<path d="M432,352.251h-96c-4.418,0-8,3.582-8,8v32c0,4.418,3.582,8,8,8h96c4.418,0,8-3.582,8-8v-32
			C440,355.833,436.418,352.251,432,352.251z M424,384.251h-80v-16h80V384.251z"/>
	</g>
</g>
<g>
</g>
<g>
</g>
<g>
</g>
<g>
</g>
<g>
</g>
<g>
</g>
<g>
</g>
<g>
</g>
<g>
</g>
<g>
</g>
<g>
</g>
<g>
</g>
<g>
</g>
<g>
</g>
<g>
</g>
</svg>
