<?xml version="1.0" encoding="utf-8"?><svg xmlns="http://www.w3.org/2000/svg" xmlns:xlink="http://www.w3.org/1999/xlink"><symbol viewBox="0 0 284.929 284.929" id="icons--arrow-up" xmlns="http://www.w3.org/2000/svg"><path d="M282.082 195.285L149.028 62.24c-1.901-1.903-4.088-2.856-6.562-2.856s-4.665.953-6.567 2.856L2.856 195.285C.95 197.191 0 199.378 0 201.853c0 2.474.953 4.664 2.856 6.566l14.272 14.271c1.903 1.903 4.093 2.854 6.567 2.854s4.664-.951 6.567-2.854l112.204-112.202 112.208 112.209c1.902 1.903 4.093 2.848 6.563 2.848 2.478 0 4.668-.951 6.57-2.848l14.274-14.277c1.902-1.902 2.847-4.093 2.847-6.566.001-2.476-.944-4.666-2.846-6.569z"/></symbol><symbol viewBox="0 0 474.986 474.986" id="icons--icon1" xmlns="http://www.w3.org/2000/svg"><path d="M440.904 356.937l-15.139-80.104a10.32 10.32 0 00-5.93-7.501 10.314 10.314 0 00-9.542.577l-69.815 42.086a10.317 10.317 0 00-4.514 11.952 10.31 10.31 0 0010.559 7.184l27.269-1.902c-26.037 34.993-65.227 49.355-110.178 53.036V153.103h22.449c3.62 2.695 8.07 4.343 12.929 4.343 12.021 0 21.771-9.742 21.771-21.764 0-12.029-9.75-21.771-21.771-21.771-4.867 0-9.318 1.656-12.938 4.351h-22.441V86.789c12.776-8.494 21.231-22.987 21.231-39.436C284.845 21.247 263.6 0 237.493 0s-47.354 21.247-47.354 47.353c0 16.449 8.456 30.942 21.231 39.436v31.474h-22.44c-3.62-2.695-8.07-4.351-12.937-4.351-12.021 0-21.771 9.742-21.771 21.771 0 12.021 9.75 21.764 21.771 21.764 4.859 0 9.309-1.648 12.929-4.343h22.448v229.162c-44.95-3.681-84.14-18.043-110.176-53.036l27.269 1.902a10.309 10.309 0 0010.558-7.184 10.317 10.317 0 00-4.513-11.952L64.692 269.91a10.315 10.315 0 00-9.542-.577 10.32 10.32 0 00-5.93 7.501l-15.14 80.104a10.315 10.315 0 005.906 11.327 10.313 10.313 0 0012.399-3.088l16.287-21.008c31.843 51.565 81.914 94.736 139.664 105.942l21.854 21.854c4.036 4.028 10.565 4.028 14.594 0l21.854-21.854c57.75-11.198 107.828-54.377 139.672-105.942l16.287 21.008a10.312 10.312 0 0012.398 3.088 10.315 10.315 0 005.909-11.328zM237.493 34.839c6.9 0 12.513 5.614 12.513 12.514 0 6.9-5.613 12.514-12.513 12.514-6.9 0-12.515-5.614-12.515-12.514.001-6.9 5.615-12.514 12.515-12.514z"/></symbol><symbol viewBox="0 0 475.099 475.099" id="icons--icon10" xmlns="http://www.w3.org/2000/svg"><path d="M442.829 265.532c9.328-14.089 13.986-29.598 13.986-46.538 0-19.607-7.225-36.637-21.687-51.117-14.469-14.465-31.601-21.696-51.394-21.696h-50.251c9.134-18.842 13.709-37.117 13.709-54.816 0-22.271-3.34-39.971-9.996-53.105-6.663-13.138-16.372-22.795-29.126-28.984C295.313 3.09 280.947 0 264.959 0c-9.712 0-18.274 3.521-25.697 10.566-8.183 7.993-14.084 18.274-17.699 30.837-3.617 12.559-6.521 24.6-8.708 36.116-2.187 11.515-5.569 19.652-10.135 24.41-9.329 10.088-19.511 22.273-30.551 36.547-19.224 24.932-32.264 39.685-39.113 44.255H54.828c-10.088 0-18.702 3.574-25.84 10.706-7.135 7.139-10.705 15.752-10.705 25.841v182.723c0 10.089 3.566 18.699 10.705 25.838 7.142 7.139 15.752 10.711 25.84 10.711h82.221c4.188 0 17.319 3.806 39.399 11.42 23.413 8.186 44.017 14.418 61.812 18.702a230.392 230.392 0 0054.106 6.427h36.829c26.836 0 48.438-7.666 64.809-22.99 16.365-15.324 24.458-36.213 24.27-62.67 11.42-14.657 17.129-31.597 17.129-50.819 0-4.185-.281-8.277-.855-12.278 7.23-12.748 10.854-26.453 10.854-41.11-.003-6.853-.858-13.423-2.573-19.7zM85.949 396.58c-3.616 3.614-7.898 5.428-12.847 5.428-4.95 0-9.233-1.813-12.85-5.428-3.615-3.613-5.424-7.897-5.424-12.85 0-4.948 1.805-9.229 5.424-12.847 3.621-3.617 7.9-5.425 12.85-5.425 4.949 0 9.231 1.808 12.847 5.425 3.617 3.617 5.426 7.898 5.426 12.847 0 4.953-1.809 9.237-5.426 12.85zm328.196-154.161c-4.093 8.754-9.186 13.227-15.276 13.415 2.854 3.237 5.235 7.762 7.139 13.562 1.902 5.807 2.847 11.087 2.847 15.848 0 13.127-5.037 24.455-15.126 33.969 3.43 6.088 5.141 12.658 5.141 19.697 0 7.043-1.663 14.038-4.996 20.984-3.327 6.94-7.851 11.938-13.559 14.982.951 5.709 1.423 11.04 1.423 15.988 0 31.785-18.274 47.678-54.823 47.678h-34.536c-24.94 0-57.483-6.943-97.648-20.841-.953-.38-3.709-1.383-8.28-2.998s-7.948-2.806-10.138-3.565c-2.19-.767-5.518-1.861-9.994-3.285-4.475-1.431-8.087-2.479-10.849-3.142-2.758-.664-5.901-1.283-9.419-1.855-3.52-.571-6.519-.855-8.993-.855h-9.136V219.285h9.136c3.045 0 6.423-.859 10.135-2.568 3.711-1.714 7.52-4.283 11.421-7.71a294.593 294.593 0 0010.992-10.138c3.427-3.33 7.233-7.517 11.422-12.559 4.187-5.046 7.47-9.089 9.851-12.135a1179.86 1179.86 0 008.992-11.707c3.615-4.757 5.806-7.613 6.567-8.566 10.467-12.941 17.795-21.601 21.982-25.981 7.804-8.182 13.466-18.603 16.987-31.261 3.525-12.66 6.427-24.604 8.703-35.832 2.282-11.229 5.903-19.321 10.858-24.27 18.268 0 30.453 4.471 36.542 13.418 6.088 8.945 9.134 22.746 9.134 41.399 0 11.229-4.572 26.503-13.71 45.821-9.134 19.32-13.698 34.5-13.698 45.539h100.495c9.527 0 17.993 3.662 25.413 10.994 7.426 7.327 11.143 15.843 11.143 25.553-.003 6.661-2.05 14.371-6.142 23.137z"/></symbol><symbol viewBox="0 0 49.94 49.94" id="icons--icon11" xmlns="http://www.w3.org/2000/svg"><path d="M48.856 22.731a3.56 3.56 0 00.906-3.671 3.56 3.56 0 00-2.892-2.438l-12.092-1.757a1.58 1.58 0 01-1.19-.865L28.182 3.043a3.56 3.56 0 00-3.212-1.996 3.56 3.56 0 00-3.211 1.996L16.352 14c-.23.467-.676.79-1.191.865L3.069 16.623A3.557 3.557 0 00.178 19.06a3.56 3.56 0 00.906 3.671l8.749 8.528c.373.364.544.888.456 1.4L8.224 44.702a3.559 3.559 0 001.424 3.502 3.552 3.552 0 003.772.273l10.814-5.686a1.583 1.583 0 011.472 0l10.815 5.686a3.568 3.568 0 003.772-.273 3.559 3.559 0 001.424-3.502L39.651 32.66a1.582 1.582 0 01.456-1.4l8.749-8.529zM37.681 32.998l2.065 12.042a1.553 1.553 0 01-.629 1.547 1.558 1.558 0 01-1.665.121l-10.815-5.687a3.588 3.588 0 00-3.334.001L12.49 46.708a1.56 1.56 0 01-1.666-.121 1.554 1.554 0 01-.629-1.547l2.065-12.042a3.581 3.581 0 00-1.03-3.17l-8.75-8.529a1.55 1.55 0 01-.4-1.621c.19-.586.667-.988 1.276-1.077l12.091-1.757a3.576 3.576 0 002.697-1.959l5.407-10.957a1.551 1.551 0 011.418-.881c.616 0 1.146.329 1.419.881l5.407 10.957a3.575 3.575 0 002.696 1.959l12.092 1.757a1.552 1.552 0 011.276 1.077c.19.585.041 1.191-.4 1.621l-8.749 8.528a3.58 3.58 0 00-1.029 3.171z"/></symbol><symbol viewBox="0 0 468.7 468.7" id="icons--icon12" xmlns="http://www.w3.org/2000/svg"><path d="M449.35 0h-430c-6.6 0-12 5.4-12 12s5.4 12 12 12h25.9v432.4c0 4.4 2.4 8.5 6.3 10.6s8.6 1.9 12.3-.6l52.1-34.7 52.3 34.8c4 2.7 9.3 2.7 13.3 0l52.1-34.7 52.3 34.8c4 2.7 9.3 2.7 13.3 0l52.1-34.7 52.3 34.8c2 1.3 4.3 2 6.6 2 1.9 0 3.9-.5 5.7-1.4 3.9-2.1 6.3-6.2 6.3-10.6l-.2-432.4h27.3c6.6 0 12-5.4 12-12s-5.4-12.3-12-12.3zm-51 434l-40.3-26.8c-4-2.7-9.3-2.7-13.3 0l-52.1 34.8-52.3-34.8c-4-2.7-9.3-2.7-13.3 0l-52.1 34.7-52.3-34.7c-4-2.7-9.3-2.7-13.3 0l-40.1 26.7v-410h329l.1 410.1z"/></symbol><symbol viewBox="0 0 60 24" id="icons--icon2" xmlns="http://www.w3.org/2000/svg"><path d="M59 10h-2.18c-.951-5.666-5.85-10-11.748-10-5.822 0-10.696 4.119-11.825 9.579-.971-.814-2.079-1.246-3.247-1.246-1.167 0-2.274.432-3.245 1.245C25.639 4.118 20.825 0 15.072 0 8.756 0 3.565 4.851 3.051 11H1a1 1 0 100 2h2.051c.514 6.149 5.705 11 12.021 11 6.467 0 11.736-5.207 11.911-11.671.853-1.285 1.915-1.996 3.017-1.996 1.102 0 2.164.712 3.017 1.996C33.195 18.793 38.528 24 45.072 24 51.649 24 57 18.617 57 12h2a1 1 0 100-2zM15.072 22C9.519 22 5 17.514 5 12S9.519 2 15.072 2C20.64 2 25 6.393 25 12s-4.36 10-9.928 10zm30 0C39.519 22 35 17.514 35 12S39.519 2 45.072 2C50.64 2 55 6.393 55 12s-4.36 10-9.928 10z"/></symbol><symbol viewBox="0 0 471.701 471.701" id="icons--icon3" xmlns="http://www.w3.org/2000/svg"><path d="M433.601 67.001c-24.7-24.7-57.4-38.2-92.3-38.2s-67.7 13.6-92.4 38.3l-12.9 12.9-13.1-13.1c-24.7-24.7-57.6-38.4-92.5-38.4-34.8 0-67.6 13.6-92.2 38.2-24.7 24.7-38.3 57.5-38.2 92.4 0 34.9 13.7 67.6 38.4 92.3l187.8 187.8c2.6 2.6 6.1 4 9.5 4 3.4 0 6.9-1.3 9.5-3.9l188.2-187.5c24.7-24.7 38.3-57.5 38.3-92.4.1-34.9-13.4-67.7-38.1-92.4zm-19.2 165.7l-178.7 178-178.3-178.3c-19.6-19.6-30.4-45.6-30.4-73.3s10.7-53.7 30.3-73.2c19.5-19.5 45.5-30.3 73.1-30.3 27.7 0 53.8 10.8 73.4 30.4l22.6 22.6c5.3 5.3 13.8 5.3 19.1 0l22.4-22.4c19.6-19.6 45.7-30.4 73.3-30.4 27.6 0 53.6 10.8 73.2 30.3 19.6 19.6 30.3 45.6 30.3 73.3.1 27.7-10.7 53.7-30.3 73.3z"/></symbol><symbol viewBox="0 0 432.4 432.4" id="icons--icon4" xmlns="http://www.w3.org/2000/svg"><path d="M216.529 93.2c-61.2 0-111.2 50-111.2 111.2 0 32 14 62.8 37.6 83.6 17.6 17.6 16 55.2 15.6 55.6 0 2 .4 3.6 2 5.2 1.2 1.2 3.2 2 4.8 2h102c2 0 3.6-.8 4.8-2 1.2-1.2 2-3.2 2-5.2 0-.4-2-38 15.6-55.6l1.2-1.2c23.2-21.2 36.8-51.2 36.8-82.4 0-61.2-50-111.2-111.2-111.2zm64 184.4c-.4.4-1.2 1.2-1.2 1.6-15.6 16.8-18.4 44.4-18.8 57.6h-88.4c-.4-13.2-3.2-42-20-59.2-21.2-18.4-33.6-45.2-33.6-73.6 0-54 43.6-97.6 97.6-97.6s97.6 43.6 97.6 97.6c0 28.4-12 55.2-33.2 73.6z"/><path d="M216.129 121.6c-3.6 0-6.8 3.2-6.8 6.8 0 3.6 3.2 6.8 6.8 6.8 40.4 0 72.8 32.8 72.8 72.8 0 3.6 3.2 6.8 6.8 6.8 3.6 0 6.8-3.2 6.8-6.8.4-47.6-38.4-86.4-86.4-86.4zm44.4 236.8h-88.8c-9.2 0-16.8 7.6-16.8 16.8s7.6 16.8 16.8 16.8h88.4c9.6-.4 17.2-7.6 17.2-16.8 0-9.2-7.6-16.8-16.8-16.8zm0 19.6h-88.8c-1.6 0-3.2-1.2-3.2-3.2s1.2-3.2 3.2-3.2h88.4c1.6 0 3.2 1.2 3.2 3.2s-1.2 3.2-2.8 3.2zm-13.2 20.8h-62.4c-9.2 0-16.8 7.6-16.8 16.8s7.6 16.8 16.8 16.8h62.4c9.2 0 16.8-7.6 16.8-16.8 0-9.6-7.6-16.8-16.8-16.8zm0 19.6h-62.4c-1.6 0-3.2-1.2-3.2-3.2s1.2-3.2 3.2-3.2h62.4c1.6 0 3.2 1.2 3.2 3.2s-1.6 3.2-3.2 3.2zM216.129 60c4 0 6.8-3.2 6.8-6.8V6.8c0-3.6-3.2-6.8-6.8-6.8-3.6 0-6.8 3.2-6.8 6.8v46.4c0 3.6 3.2 6.8 6.8 6.8zm113.2-25.6c-3.2-2.4-7.2-1.2-9.2 1.6l-25.6 38.4c-2.4 3.2-1.6 7.6 1.6 9.6 1.2.8 2.4 1.2 3.6 1.2 2.4 0 4.4-1.2 5.6-3.2l25.6-38.4c2.4-2.8 1.6-7.2-1.6-9.2zm-194.4 49.2c1.2 0 2.4-.4 3.6-1.2 3.2-2 4-6.4 2-9.6l-24.8-38.8c-2-3.2-6.4-4-9.6-2s-4 6.4-2 9.6l24.8 38.8c1.6 2.4 3.6 3.2 6 3.2zm-48.4 42.4l-40.4-22c-3.2-1.6-7.6-.4-9.2 2.8-2 3.2-.8 7.6 2.8 9.2l40.4 22c1.2.4 2 .8 3.2.8 2.4 0 4.8-1.2 6-3.6 1.6-3.2.4-7.6-2.8-9.2zm309.2-19.2c-1.6-3.2-6-4.4-9.2-2.8l-40.8 22c-3.2 1.6-4.4 6-2.8 9.2 1.2 2.4 3.6 3.6 6 3.6 1.2 0 2.4-.4 3.2-.8l40.8-22c3.2-1.6 4.4-6 2.8-9.2z"/></symbol><symbol viewBox="0 0 60 60" id="icons--icon5" xmlns="http://www.w3.org/2000/svg"><path d="M54.07 1H15.93C12.66 1 10 3.66 10 6.93V15H5.93C2.66 15 0 17.66 0 20.929V42.07C0 45.34 2.66 48 5.93 48H12v10a1 1 0 001.74.673L23.442 48H44.07c3.27 0 5.93-2.66 5.93-5.929V34h4.07c3.27 0 5.93-2.66 5.93-5.93V6.93C60 3.66 57.34 1 54.07 1zM48 42.071A3.934 3.934 0 0144.07 46H23a1 1 0 00-.74.327L14 55.414V47a1 1 0 00-1-1H5.93A3.934 3.934 0 012 42.07V20.929A3.934 3.934 0 015.93 17h38.14A3.934 3.934 0 0148 20.93v21.141zM58 28.07A3.934 3.934 0 0154.07 32H50V20.93c0-3.27-2.66-5.93-5.93-5.93H12V6.93A3.934 3.934 0 0115.93 3h38.14A3.934 3.934 0 0158 6.93v21.14z"/></symbol><symbol viewBox="0 0 389.981 389.981" id="icons--icon6" xmlns="http://www.w3.org/2000/svg"><path d="M145.407 248.988l-2.775 26.209a7.497 7.497 0 007.459 8.289h79.301a7.506 7.506 0 005.576-2.483 7.505 7.505 0 001.883-5.806l-2.775-26.209h98.777c15.374 0 27.881-12.507 27.881-27.881V27.881C360.733 12.507 348.225 0 332.852 0H40.63C25.256 0 12.749 12.507 12.749 27.881v193.226c0 15.374 12.507 27.881 27.881 27.881h104.777zm75.648 19.499h-62.629l2.064-19.499h58.5l2.065 19.499zM40.63 15h292.222c7.103 0 12.881 5.778 12.881 12.881V197.99H27.749V27.881C27.749 20.778 33.527 15 40.63 15zM27.749 221.107v-8.117h317.983v8.117c0 7.103-5.778 12.881-12.881 12.881H40.63c-7.103 0-12.881-5.778-12.881-12.881zm304.896 112.769a7.5 7.5 0 00.244-7.352l-14.813-28.499a7.5 7.5 0 00-6.655-4.041H62.061a7.501 7.501 0 00-6.655 4.041l-14.813 28.499a7.502 7.502 0 006.655 10.959h278.986a7.498 7.498 0 006.411-3.607zM59.599 322.484l7.016-13.499h240.251l7.017 13.499H59.599zm286.134 28.498h-12c-17.368 0-31.499 14.13-31.499 31.499a7.5 7.5 0 007.5 7.5h59.997a7.5 7.5 0 007.5-7.5c.001-17.368-14.129-31.499-31.498-31.499zm-26.693 23.999c2.735-5.337 8.295-8.999 14.693-8.999h12c6.398 0 11.958 3.662 14.694 8.999H319.04z"/></symbol><symbol viewBox="0 0 480 480" id="icons--icon7" xmlns="http://www.w3.org/2000/svg"><path d="M472 104.251h-32.648c4.691-30.57-16.287-59.155-46.858-63.846s-59.155 16.287-63.846 46.858a56 56 0 000 16.989H64v-40a8 8 0 00-8-8H32c-17.673 0-32 14.327-32 32v320c0 17.673 14.327 32 32 32h440a8 8 0 008-8v-320a8 8 0 00-8-8.001zM354.155 69.593A39.952 39.952 0 01384 56.252c22.065-.03 39.976 17.834 40.005 39.898a39.955 39.955 0 01-13.341 29.854 8 8 0 00-2.664 5.952v12.296h-16v-20.688l21.656-21.656-11.312-11.312L384 108.939l-18.344-18.344-11.312 11.312L376 123.563v20.688h-16v-12.296a7.999 7.999 0 00-2.656-5.952c-16.458-14.696-17.886-39.952-3.189-56.41zM16 88.251c0-8.837 7.163-16 16-16h16v304H32a31.76 31.76 0 00-16 4.296V88.251zm448 336H32c-8.837 0-16-7.163-16-16s7.163-16 16-16h24a8 8 0 008-8v-264h269.52A55.953 55.953 0 00344 135.363v8.888h-16v16h112v-16h-16v-8.888a56.162 56.162 0 0010.488-15.112H464v304z"/><path d="M296 144.251H96a8 8 0 00-8 8v168a8 8 0 008 8h200a8 8 0 008-8v-168a8 8 0 00-8-8zm-8 168H104v-36.32l47.584-40.8 58.76 58.76 11.312-11.312-10.344-10.328L240 243.563l48 48v20.688zm0-43.312l-42.344-42.344a8 8 0 00-11.312 0L200 260.939l-42.344-42.344a8 8 0 00-10.864-.416L104 254.859v-94.608h184v108.688zm72-84.688h16v16h-16zm32 0h48v16h-48zm-64 32h112v16H328zm0 32h112v16H328zm0 32h112v16H328zm0 32h80v16h-80zm-200 40h176v16H128zm-40 32h216v16H88z"/><path d="M200 176.251c-13.255 0-24 10.745-24 24s10.745 24 24 24 24-10.745 24-24-10.745-24-24-24zm0 32a8 8 0 110-16 8 8 0 010 16zm-72-32h16v16h-16zm120 16h16v16h-16zm-160 160h16v16H88zm344 0h-96a8 8 0 00-8 8v32a8 8 0 008 8h96a8 8 0 008-8v-32a8 8 0 00-8-8zm-8 32h-80v-16h80v16z"/></symbol><symbol viewBox="0 0 333.668 333.668" id="icons--icon8" xmlns="http://www.w3.org/2000/svg"><path d="M295.101 298.649H38.561C17.295 298.649 0 281.354 0 260.088V103.703c0-21.266 17.295-38.561 38.561-38.561h52.347l4.582-15.457c1.87-8.458 9.602-14.666 18.696-14.666h105.297c8.837 0 16.658 6.176 18.728 14.743l.122.527 4.177 14.852h52.597c21.266 0 38.561 17.295 38.561 38.561v156.384c-.006 21.268-17.307 38.563-38.567 38.563zM38.561 77.996c-14.178 0-25.707 11.53-25.707 25.707v156.384c0 14.178 11.53 25.707 25.707 25.707h256.54c14.178 0 25.707-11.53 25.707-25.707V103.703c0-14.178-11.53-25.707-25.707-25.707h-62.327l-7.037-25.097c-.649-2.918-3.278-5.032-6.26-5.032H114.179c-3.027 0-5.598 2.069-6.26 5.039l-7.429 25.09H38.561zm128.28 181.802c-44.981 0-81.576-36.588-81.576-81.563 0-44.981 36.594-81.569 81.576-81.569 44.969 0 81.557 36.594 81.557 81.569-.001 44.969-36.589 81.563-81.557 81.563zm0-150.285c-37.893 0-68.722 30.823-68.722 68.716s30.83 68.709 68.722 68.709c37.886 0 68.703-30.823 68.703-68.709-.001-37.893-30.824-68.716-68.703-68.716zm119.963-7.661c-6.555 0-11.858 5.315-11.858 11.858 0 6.549 5.302 11.857 11.858 11.857 6.549 0 11.851-5.309 11.851-11.857-.006-6.543-5.309-11.858-11.851-11.858z"/></symbol><symbol viewBox="0 0 512 512" id="icons--icon9" xmlns="http://www.w3.org/2000/svg"><path d="M512 34.88c.039-9.349-3.569-18.126-10.159-24.716S486.457-.028 477.126.006c-9.322.039-18.098 3.702-24.711 10.314-2.8 2.8-7.893 8.848-10.679 12.205a8.294 8.294 0 001.083 11.68 8.294 8.294 0 0011.68-1.083c4.364-5.256 7.971-9.395 9.646-11.071 3.498-3.497 8.132-5.435 13.05-5.456h.079c4.862 0 9.419 1.88 12.837 5.299 3.437 3.437 5.32 8.024 5.299 12.916-.021 4.917-1.959 9.551-5.456 13.05-3.131 3.131-13.893 11.668-29.312 22.439-9.121-15.594-26.037-26.099-45.37-26.099H293.808c-16.396 0-31.81 6.385-43.405 17.978L7.613 304.971C2.704 309.88 0 316.407 0 323.349s2.704 13.47 7.613 18.378L170.28 504.394c5.068 5.067 11.722 7.6 18.378 7.6 6.656 0 13.312-2.534 18.378-7.6l242.792-242.791c11.593-11.594 17.978-27.008 17.978-43.405V96.735c0-3.585-.363-7.085-1.051-10.47 17.551-12.077 30.435-22.18 34.929-26.674 6.614-6.612 10.277-15.388 10.316-24.711zm-60.783 183.318c0 11.965-4.66 23.214-13.119 31.673L195.306 492.664c-3.664 3.665-9.63 3.665-13.295 0L19.344 329.997c-1.775-1.775-2.754-4.136-2.754-6.648s.978-4.872 2.754-6.647L262.135 73.911c8.461-8.46 19.709-13.119 31.673-13.119h121.463c13.64 0 25.53 7.637 31.618 18.859a672.558 672.558 0 01-32.408 20.171 35.31 35.31 0 00-1.119-1.177c-13.584-13.584-35.686-13.584-49.27 0-13.584 13.584-13.584 35.686 0 49.27 6.792 6.792 15.714 10.187 24.635 10.187 8.921 0 17.843-3.395 24.635-10.187 9.067-9.067 12.072-21.926 9.036-33.517a696.517 696.517 0 0028.815-17.743l.003.081v121.462zm-69.898-91.191a8.294 8.294 0 0011.139 3.682 519.856 519.856 0 0014.504-7.596c.048 4.735-1.722 9.485-5.328 13.091-7.116 7.115-18.692 7.115-25.808 0-7.115-7.116-7.115-18.692 0-25.808a18.191 18.191 0 0112.904-5.336c3.7 0 7.389 1.134 10.536 3.363a509.19 509.19 0 01-14.263 7.468 8.29 8.29 0 00-3.684 11.136z"/></symbol><symbol viewBox="0 0 96.124 96.123" id="icons--social" xmlns="http://www.w3.org/2000/svg"><path d="M72.089.02L59.624 0C45.62 0 36.57 9.285 36.57 23.656v10.907H24.037a1.96 1.96 0 00-1.96 1.961v15.803a1.96 1.96 0 001.96 1.96H36.57v39.876a1.96 1.96 0 001.96 1.96h16.352a1.96 1.96 0 001.96-1.96V54.287h14.654a1.96 1.96 0 001.96-1.96l.006-15.803a1.963 1.963 0 00-1.961-1.961H56.842v-9.246c0-4.444 1.059-6.7 6.848-6.7l8.397-.003a1.96 1.96 0 001.959-1.96V1.98A1.96 1.96 0 0072.089.02z"/></symbol><symbol viewBox="0 0 612 612" id="icons--social2" xmlns="http://www.w3.org/2000/svg"><path d="M612 116.258a250.714 250.714 0 01-72.088 19.772c25.929-15.527 45.777-40.155 55.184-69.411-24.322 14.379-51.169 24.82-79.775 30.48-22.907-24.437-55.49-39.658-91.63-39.658-69.334 0-125.551 56.217-125.551 125.513 0 9.828 1.109 19.427 3.251 28.606-104.326-5.24-196.835-55.223-258.75-131.174-10.823 18.51-16.98 40.078-16.98 63.101 0 43.559 22.181 81.993 55.835 104.479a125.556 125.556 0 01-56.867-15.756v1.568c0 60.806 43.291 111.554 100.693 123.104-10.517 2.83-21.607 4.398-33.08 4.398-8.107 0-15.947-.803-23.634-2.333 15.985 49.907 62.336 86.199 117.253 87.194-42.947 33.654-97.099 53.655-155.916 53.655-10.134 0-20.116-.612-29.944-1.721 55.567 35.681 121.536 56.485 192.438 56.485 230.948 0 357.188-191.291 357.188-357.188l-.421-16.253c24.666-17.593 46.005-39.697 62.794-64.861z"/></symbol><symbol viewBox="0 0 402.041 402.04" id="icons--social3" xmlns="http://www.w3.org/2000/svg"><path d="M54.816 292.382c-15.229 0-28.169 5.331-38.831 15.988C5.33 319.026 0 331.969 0 347.197c0 15.232 5.325 28.172 15.985 38.828 10.662 10.657 23.606 15.988 38.831 15.988 15.227 0 28.168-5.331 38.828-15.988 10.656-10.656 15.986-23.596 15.986-38.828 0-15.229-5.33-28.171-15.986-38.827-10.657-10.657-23.598-15.988-38.828-15.988zm126.194-71.38c-21.51-21.698-46.158-38.97-73.948-51.816-27.79-12.85-56.914-20.511-87.366-22.985h-1.425c-4.949 0-9.042 1.619-12.275 4.854C1.997 154.477 0 158.953 0 164.472v38.543c0 4.757 1.569 8.85 4.708 12.279 3.14 3.429 7.089 5.332 11.848 5.708 43.586 4.189 80.845 21.752 111.773 52.678 30.93 30.926 48.49 68.187 52.677 111.771.382 4.764 2.284 8.712 5.712 11.847 3.427 3.148 7.517 4.72 12.275 4.72h38.545c5.517 0 9.989-1.995 13.415-5.996 3.621-3.812 5.236-8.381 4.863-13.709-2.478-30.447-10.14-59.573-22.987-87.361-12.846-27.792-30.121-52.438-51.819-73.95z"/><path d="M367.728 239.701c-20.365-45.585-48.345-86.078-83.936-121.482-35.405-35.594-75.896-63.572-121.485-83.939C116.723 13.917 68.996 2.494 19.126.02h-.855c-4.949 0-9.136 1.713-12.563 5.14C1.903 8.583 0 12.964 0 18.294v40.825c0 4.76 1.667 8.897 4.996 12.419 3.33 3.523 7.373 5.376 12.132 5.57 40.924 2.478 79.799 12.188 116.63 29.127 36.83 16.94 68.806 38.972 95.93 66.09 27.118 27.123 49.149 59.101 66.089 95.931 16.94 36.836 26.557 75.705 28.839 116.627.195 4.764 2.046 8.809 5.564 12.139 3.524 3.329 7.762 4.999 12.71 4.999h40.823c5.331 0 9.701-1.902 13.134-5.715 3.809-3.806 5.517-8.274 5.144-13.415-2.471-49.874-13.898-97.6-34.263-143.19z"/></symbol><symbol viewBox="0 0 475.092 475.092" id="icons--social4" xmlns="http://www.w3.org/2000/svg"><path d="M273.372 302.498a148.384 148.384 0 00-16.7-18.842c-6.091-5.804-12.183-11.088-18.271-15.845-6.092-4.757-11.659-9.329-16.702-13.709-5.042-4.374-9.135-8.945-12.275-13.702-3.14-4.757-4.711-9.61-4.711-14.558 0-6.855 2.19-13.278 6.567-19.274 4.377-5.996 9.707-11.799 15.986-17.417 6.28-5.617 12.559-11.753 18.844-18.415 6.276-6.665 11.604-15.465 15.985-26.412 4.373-10.944 6.563-23.458 6.563-37.542 0-16.75-3.713-32.835-11.136-48.25-7.423-15.418-17.89-27.412-31.405-35.976h38.54L303.2 0H178.441c-17.699 0-35.498 1.906-53.384 5.72-26.453 5.9-48.723 19.368-66.806 40.397-18.08 21.033-27.122 44.873-27.122 71.52 0 28.171 10.138 51.583 30.406 70.233 20.269 18.649 44.585 27.978 72.945 27.978 5.71 0 12.371-.478 19.985-1.427-.381 1.521-1.043 3.567-1.997 6.136s-1.715 4.62-2.286 6.14c-.57 1.521-1.047 3.375-1.425 5.566a38.99 38.99 0 00-.571 6.71c0 12.563 6.086 26.744 18.271 42.541-14.465.387-28.737 1.67-42.825 3.86-14.084 2.19-28.833 5.616-44.252 10.28-15.417 4.661-29.217 11.42-41.396 20.27-12.182 8.854-21.317 19.366-27.408 31.549C3.533 361.559.01 374.405.01 386.017c0 12.751 2.857 24.314 8.565 34.69 5.708 10.369 13.035 18.842 21.982 25.406 8.945 6.57 19.273 12.083 30.978 16.562 11.704 4.47 23.315 7.659 34.829 9.562 11.516 1.903 22.888 2.854 34.119 2.854 51.007 0 90.981-12.464 119.909-37.397 26.648-23.223 39.971-50.062 39.971-80.517 0-10.855-1.57-20.984-4.712-30.409-3.141-9.431-7.231-17.514-12.279-24.27zM163.311 198.722c-9.707 0-18.937-2.475-27.694-7.426-8.757-4.95-16.18-11.374-22.27-19.273-6.088-7.898-11.418-16.796-15.987-26.695-4.567-9.896-7.944-19.792-10.135-29.692-2.19-9.895-3.284-19.318-3.284-28.265 0-18.271 4.854-33.974 14.562-47.108 9.705-13.134 23.411-19.701 41.112-19.701 12.563 0 23.935 3.899 34.118 11.704 10.183 7.804 18.177 17.701 23.984 29.692a187.496 187.496 0 0113.417 37.257c3.14 12.847 4.711 24.983 4.711 36.403 0 19.036-4.139 34.317-12.419 45.833-8.282 11.513-21.651 17.271-40.115 17.271zm78.94 214.401c-5.23 8.949-12.319 15.94-21.267 20.981-8.946 5.048-18.509 8.758-28.693 11.14-10.183 2.385-20.889 3.572-32.12 3.572-12.182 0-24.27-1.431-36.258-4.284-11.99-2.851-23.459-7.187-34.403-12.991-10.944-5.8-19.795-13.798-26.551-23.982-6.757-10.184-10.135-21.744-10.135-34.69 0-11.419 2.568-21.601 7.708-30.55 5.142-8.945 11.709-16.084 19.702-21.408 7.994-5.332 17.319-9.713 27.979-13.131 10.66-3.433 20.937-5.808 30.833-7.139 9.895-1.335 19.985-1.995 30.262-1.995 6.283 0 11.043.191 14.277.567 1.143.767 4.043 2.759 8.708 5.996s7.804 5.428 9.423 6.57c1.615 1.137 4.567 3.326 8.85 6.563 4.281 3.237 7.327 5.661 9.135 7.279 1.803 1.618 4.421 4.045 7.849 7.279 3.424 3.237 5.948 6.043 7.566 8.422a982.05 982.05 0 005.996 8.702c2.38 3.433 4.043 6.715 4.998 9.855a158.985 158.985 0 012.707 10.277c.855 3.72 1.283 7.569 1.283 11.57.005 11.987-2.613 22.456-7.849 31.397z"/><path d="M401.998 73.089V0h-36.549v73.089h-73.091v36.547h73.091v73.089h36.549v-73.089h73.083V73.089z"/></symbol><symbol viewBox="0 0 478.165 478.165" id="icons--social5" xmlns="http://www.w3.org/2000/svg"><path d="M478.165 290.794v176.742H375.638V302.549c0-41.481-14.783-69.673-51.881-69.673-28.371 0-45.107 19.087-52.578 37.456-2.69 6.615-3.507 15.879-3.507 25.024v172.159H165.246s1.375-279.328 0-308.257h102.447v43.692c-.139.359-.438.657-.578 1.056h.578v-1.056c13.687-20.999 37.934-50.925 92.385-50.925 67.581.001 118.087 44.052 118.087 138.769zM57.997 10.629C22.952 10.629 0 33.621 0 63.945c0 29.507 22.275 53.276 56.682 53.276h.618c35.822 0 58.017-23.769 58.017-53.276-.697-30.324-22.194-53.316-57.32-53.316zM6.117 467.535h102.467V159.239H6.117v308.296z"/></symbol><symbol viewBox="0 0 430.123 430.123" id="icons--social6" xmlns="http://www.w3.org/2000/svg"><path d="M412.164 246.198a199.284 199.284 0 002.45-31.148c0-110.215-89.342-199.555-199.56-199.555-10.576 0-20.995.871-31.141 2.458C165.534 6.581 143.842 0 120.595 0 53.996 0 .005 53.984.005 120.59c0 23.242 6.585 44.916 17.952 63.332-1.573 10.172-2.439 20.528-2.439 31.132 0 110.223 89.34 199.536 199.532 199.536 10.585 0 21.007-.816 31.152-2.417 18.398 11.35 40.072 17.949 63.314 17.949 66.617 0 120.602-53.998 120.602-120.602.005-23.251-6.576-44.92-17.954-63.322zM309.801 305.81c-8.442 12.153-20.843 21.65-37.047 28.479-16.237 6.847-35.428 10.254-57.59 10.254-26.562 0-48.554-4.648-65.913-14.034-12.305-6.721-22.313-15.737-30.007-26.98-7.71-11.252-11.619-22.271-11.619-33.015 0-6.338 2.417-11.85 7.122-16.344 4.754-4.527 10.877-6.796 18.104-6.796 5.92 0 11.005 1.783 15.145 5.316 4.109 3.532 7.556 8.667 10.375 15.443 3.379 7.85 7.049 14.412 10.954 19.648 3.881 5.171 9.343 9.488 16.417 12.867 6.996 3.388 16.307 5.082 27.958 5.082 15.945 0 28.831-3.449 38.693-10.253 9.912-6.866 14.673-15.22 14.673-25.314 0-8.051-2.567-14.445-7.831-19.43-5.312-5.05-12.172-8.896-20.685-11.579-8.546-2.711-20.02-5.586-34.399-8.615-19.308-4.214-35.456-9.119-48.533-14.752-13.094-5.654-23.522-13.383-31.251-23.146-7.745-9.859-11.607-22.113-11.607-36.627 0-13.84 4.077-26.217 12.239-36.989 8.158-10.802 19.961-19.07 35.351-24.829 15.336-5.757 33.391-8.637 54.075-8.637 16.541 0 30.849 1.914 42.96 5.722 12.078 3.836 22.146 8.898 30.196 15.25 7.999 6.338 13.885 13.023 17.613 20.038 3.725 7.036 5.601 13.908 5.601 20.614 0 6.235-2.417 11.89-7.127 16.846-4.709 4.963-10.733 7.493-17.768 7.47-6.342 0-11.317-1.463-14.767-4.56-3.36-2.996-6.889-7.766-10.706-14.414-4.825-9.276-10.604-16.503-17.324-21.672-6.543-5.073-17.338-7.714-32.359-7.682-13.898 0-25.018 2.84-33.411 8.394-8.445 5.643-12.482 12.19-12.501 19.861.014 4.807 1.396 8.86 4.177 12.326 2.824 3.498 6.753 6.529 11.803 9.084a81.825 81.825 0 0015.355 6.046c5.225 1.481 13.894 3.622 25.944 6.457 15.112 3.257 28.819 6.896 41.136 10.862 12.293 3.986 22.784 8.793 31.451 14.52 8.736 5.71 15.564 12.99 20.438 21.783 4.909 8.807 7.354 19.564 7.354 32.222.019 15.242-4.227 28.95-12.689 41.084z"/></symbol></svg>